<svg xmlns="http://www.w3.org/2000/svg" xmlns:xlink="http://www.w3.org/1999/xlink" width="500" zoomAndPan="magnify" viewBox="0 0 375 374.999991" height="500" preserveAspectRatio="xMidYMid meet" version="1.0"><defs><g/><clipPath id="43a49d9249"><path d="M 172 105 L 241 105 L 241 185 L 172 185 Z M 172 105 " clip-rule="nonzero"/></clipPath><clipPath id="68f21bc630"><path d="M 135.8125 150.609375 L 232.207031 101.902344 L 267.046875 170.851562 L 170.652344 219.554688 Z M 135.8125 150.609375 " clip-rule="nonzero"/></clipPath><clipPath id="9e65a49a52"><path d="M 135.8125 150.609375 L 232.207031 101.902344 L 267.046875 170.851562 L 170.652344 219.554688 Z M 135.8125 150.609375 " clip-rule="nonzero"/></clipPath><clipPath id="6519d54fb6"><path d="M 149 132 L 225 132 L 225 207 L 149 207 Z M 149 132 " clip-rule="nonzero"/></clipPath><clipPath id="71083364b1"><path d="M 135.8125 150.609375 L 232.207031 101.902344 L 267.046875 170.851562 L 170.652344 219.554688 Z M 135.8125 150.609375 " clip-rule="nonzero"/></clipPath><clipPath id="b2cfdb9cda"><path d="M 135.8125 150.609375 L 232.207031 101.902344 L 267.046875 170.851562 L 170.652344 219.554688 Z M 135.8125 150.609375 " clip-rule="nonzero"/></clipPath></defs><g clip-path="url(#43a49d9249)"><g clip-path="url(#68f21bc630)"><g clip-path="url(#9e65a49a52)"><path fill="#739278" d="M 201.367188 167.894531 C 201.109375 165.84375 200.417969 163.878906 199.324219 162.125 L 198.707031 161.132812 L 205.882812 151.90625 L 222.863281 129.835938 L 229.664062 130.753906 L 240.042969 117.410156 L 230.304688 116.09375 L 225.839844 105.144531 L 215.011719 119.066406 L 217.65625 125.546875 L 214.238281 129.941406 L 200.613281 147.691406 L 194.296875 155.8125 L 184.304688 168.660156 L 186.59375 155.394531 C 186.175781 155.414062 185.753906 155.449219 185.335938 155.5 C 177.46875 156.503906 171.886719 163.6875 172.867188 171.535156 C 173.851562 179.378906 181.03125 184.933594 188.898438 183.929688 C 196.765625 182.925781 202.351562 175.742188 201.367188 167.894531 Z M 201.367188 167.894531 " fill-opacity="1" fill-rule="evenodd"/></g></g></g><g clip-path="url(#6519d54fb6)"><g clip-path="url(#71083364b1)"><g clip-path="url(#b2cfdb9cda)"><path fill="#404140" d="M 190.5625 197.1875 C 175.355469 199.128906 161.476562 188.394531 159.574219 173.230469 C 157.675781 158.066406 168.472656 144.183594 183.675781 142.242188 C 187.347656 141.773438 191.058594 142.03125 194.613281 143.019531 L 200.707031 135.179688 C 194.933594 132.925781 188.703125 132.164062 182.511719 132.957031 C 162.167969 135.554688 147.722656 154.128906 150.265625 174.417969 C 152.808594 194.710938 171.382812 209.070312 191.722656 206.472656 C 212.066406 203.875 226.511719 185.300781 223.96875 165.011719 C 223.285156 159.546875 221.40625 154.324219 218.449219 149.707031 L 212.195312 157.75 C 213.460938 160.410156 214.292969 163.273438 214.660156 166.199219 C 216.5625 181.363281 205.765625 195.246094 190.558594 197.1875 Z M 190.5625 197.1875 " fill-opacity="1" fill-rule="evenodd"/></g></g></g><g fill="#404140" fill-opacity="1"><g transform="translate(109.340285, 260.991955)"><g><path d="M 5.988281 -27.882812 L 7.058594 -32.84375 L 21 -32.84375 L 19.929688 -27.882812 L 15.371094 -27.882812 L 9.472656 0 L 4.648438 0 L 10.546875 -27.882812 Z M 5.988281 -27.882812 "/></g></g></g><g fill="#404140" fill-opacity="1"><g transform="translate(126.633082, 260.991955)"><g><path d="M 0.445312 0 L 12.378906 -32.84375 L 18.277344 -32.84375 L 16.265625 0 L 11.574219 0 L 12.066406 -6.703125 L 7.417969 -6.703125 L 5.140625 0 Z M 13.316406 -22.164062 L 13.359375 -23.011719 L 13.09375 -23.011719 L 12.78125 -22.164062 L 9.207031 -11.796875 L 12.511719 -11.796875 Z M 13.316406 -22.164062 "/></g></g></g><g fill="#404140" fill-opacity="1"><g transform="translate(146.517531, 260.991955)"><g><path d="M 10.410156 0 L 10.8125 -13.851562 L 9.519531 -13.851562 L 6.613281 0 L 1.789062 0 L 8.757812 -32.84375 L 13.585938 -32.84375 C 19.347656 -32.84375 21.089844 -29.625 19.796875 -23.371094 C 19.082031 -20.109375 17.605469 -17.160156 15.503906 -15.90625 L 15.238281 0 Z M 10.5 -18.320312 C 11.171875 -18.320312 12.066406 -18.367188 12.914062 -19.035156 C 13.761719 -19.707031 14.613281 -20.867188 15.105469 -23.191406 C 15.59375 -25.515625 15.28125 -26.722656 14.703125 -27.390625 C 14.121094 -28.0625 13.226562 -28.0625 12.554688 -28.0625 Z M 10.5 -18.320312 "/></g></g></g><g fill="#404140" fill-opacity="1"><g transform="translate(165.821086, 260.991955)"><g><path d="M 13.988281 -21.046875 L 15.058594 -26.097656 C 15.238281 -26.988281 15.148438 -27.660156 14.835938 -28.152344 C 14.65625 -28.375 14.34375 -28.507812 13.941406 -28.507812 C 13.09375 -28.507812 12.554688 -27.882812 12.242188 -27.300781 C 12.066406 -26.945312 11.929688 -26.542969 11.839844 -26.097656 L 7.640625 -6.34375 C 7.417969 -5.496094 7.507812 -4.78125 7.863281 -4.289062 C 8.042969 -4.066406 8.3125 -3.933594 8.714844 -3.933594 C 9.5625 -3.933594 10.097656 -4.46875 10.410156 -5.140625 C 10.546875 -5.40625 10.722656 -5.808594 10.859375 -6.34375 L 12.109375 -12.289062 L 10.1875 -12.289062 L 11.039062 -16.355469 L 17.785156 -16.355469 L 14.34375 0 L 11.484375 0 L 11.214844 -1.5625 C 10.097656 -0.445312 8.625 0.359375 7.058594 0.359375 C 5.496094 0.359375 4.511719 -0.0429688 3.84375 -0.757812 C 3.171875 -1.429688 2.816406 -2.277344 2.679688 -3.171875 C 2.457031 -4.199219 2.546875 -5.363281 2.90625 -6.746094 L 7.015625 -26.097656 C 7.328125 -27.390625 7.820312 -28.554688 8.535156 -29.625 C 9.207031 -30.519531 9.921875 -31.414062 10.949219 -32.082031 C 11.976562 -32.753906 13.316406 -33.199219 14.925781 -33.199219 C 16.535156 -33.199219 17.652344 -32.753906 18.410156 -32.082031 C 19.167969 -31.414062 19.617188 -30.519531 19.796875 -29.625 C 20.109375 -28.644531 20.109375 -27.480469 19.886719 -26.097656 L 18.8125 -21.046875 Z M 13.988281 -21.046875 "/></g></g></g><g fill="#404140" fill-opacity="1"><g transform="translate(185.079969, 260.991955)"><g><path d="M 8.757812 -32.84375 L 19.796875 -32.84375 L 18.722656 -27.882812 L 12.511719 -27.882812 L 10.679688 -19.257812 L 15.148438 -19.257812 L 14.03125 -13.988281 L 9.5625 -13.988281 L 7.640625 -4.960938 L 13.851562 -4.960938 L 12.824219 0 L 1.789062 0 Z M 8.757812 -32.84375 "/></g></g></g><g fill="#404140" fill-opacity="1"><g transform="translate(201.970612, 260.991955)"><g><path d="M 5.988281 -27.882812 L 7.058594 -32.84375 L 21 -32.84375 L 19.929688 -27.882812 L 15.371094 -27.882812 L 9.472656 0 L 4.648438 0 L 10.546875 -27.882812 Z M 5.988281 -27.882812 "/></g></g></g><g fill="#404140" fill-opacity="1"><g transform="translate(219.263412, 260.991955)"><g><path d="M 8.757812 -32.84375 L 13.585938 -32.84375 L 6.613281 0 L 1.789062 0 Z M 8.757812 -32.84375 "/></g></g></g><g fill="#404140" fill-opacity="1"><g transform="translate(230.836707, 260.991955)"><g><path d="M 10.5 -17.113281 L 10.410156 -18.632812 L 10.144531 -18.632812 L 6.210938 0 L 1.789062 0 L 8.757812 -32.84375 L 13.046875 -32.84375 L 14.074219 -15.730469 L 14.164062 -14.210938 L 14.433594 -14.210938 L 18.410156 -32.84375 L 22.835938 -32.84375 L 15.863281 0 L 11.574219 0 Z M 10.5 -17.113281 "/></g></g></g><g fill="#404140" fill-opacity="1"><g transform="translate(251.659517, 260.991955)"><g><path d="M 13.988281 -21.046875 L 15.058594 -26.097656 C 15.238281 -26.988281 15.148438 -27.660156 14.835938 -28.152344 C 14.65625 -28.375 14.34375 -28.507812 13.941406 -28.507812 C 13.09375 -28.507812 12.554688 -27.882812 12.242188 -27.300781 C 12.066406 -26.945312 11.929688 -26.542969 11.839844 -26.097656 L 7.640625 -6.34375 C 7.417969 -5.496094 7.507812 -4.78125 7.863281 -4.289062 C 8.042969 -4.066406 8.3125 -3.933594 8.714844 -3.933594 C 9.5625 -3.933594 10.097656 -4.46875 10.410156 -5.140625 C 10.546875 -5.40625 10.722656 -5.808594 10.859375 -6.34375 L 12.109375 -12.289062 L 10.1875 -12.289062 L 11.039062 -16.355469 L 17.785156 -16.355469 L 14.34375 0 L 11.484375 0 L 11.214844 -1.5625 C 10.097656 -0.445312 8.625 0.359375 7.058594 0.359375 C 5.496094 0.359375 4.511719 -0.0429688 3.84375 -0.757812 C 3.171875 -1.429688 2.816406 -2.277344 2.679688 -3.171875 C 2.457031 -4.199219 2.546875 -5.363281 2.90625 -6.746094 L 7.015625 -26.097656 C 7.328125 -27.390625 7.820312 -28.554688 8.535156 -29.625 C 9.207031 -30.519531 9.921875 -31.414062 10.949219 -32.082031 C 11.976562 -32.753906 13.316406 -33.199219 14.925781 -33.199219 C 16.535156 -33.199219 17.652344 -32.753906 18.410156 -32.082031 C 19.167969 -31.414062 19.617188 -30.519531 19.796875 -29.625 C 20.109375 -28.644531 20.109375 -27.480469 19.886719 -26.097656 L 18.8125 -21.046875 Z M 13.988281 -21.046875 "/></g></g></g></svg>