<svg xmlns="http://www.w3.org/2000/svg" xmlns:xlink="http://www.w3.org/1999/xlink" width="500" zoomAndPan="magnify" viewBox="0 0 375 374.999991" height="500" preserveAspectRatio="xMidYMid meet" version="1.0"><defs><g/><clipPath id="96892e019c"><path d="M 158 89 L 227 89 L 227 169 L 158 169 Z M 158 89 " clip-rule="nonzero"/></clipPath><clipPath id="ecf812b927"><path d="M 121.917969 134.875 L 218.3125 86.171875 L 253.148438 155.117188 L 156.753906 203.824219 Z M 121.917969 134.875 " clip-rule="nonzero"/></clipPath><clipPath id="fc39c51e58"><path d="M 121.917969 134.875 L 218.3125 86.171875 L 253.148438 155.117188 L 156.753906 203.824219 Z M 121.917969 134.875 " clip-rule="nonzero"/></clipPath><clipPath id="9ca265cb82"><path d="M 136 116 L 211 116 L 211 192 L 136 192 Z M 136 116 " clip-rule="nonzero"/></clipPath><clipPath id="0e868311c7"><path d="M 121.917969 134.875 L 218.3125 86.171875 L 253.148438 155.117188 L 156.753906 203.824219 Z M 121.917969 134.875 " clip-rule="nonzero"/></clipPath><clipPath id="7fdb7d35de"><path d="M 121.917969 134.875 L 218.3125 86.171875 L 253.148438 155.117188 L 156.753906 203.824219 Z M 121.917969 134.875 " clip-rule="nonzero"/></clipPath></defs><g clip-path="url(#96892e019c)"><g clip-path="url(#ecf812b927)"><g clip-path="url(#fc39c51e58)"><path fill="#739278" d="M 187.472656 152.164062 C 187.214844 150.109375 186.523438 148.148438 185.429688 146.390625 L 184.8125 145.398438 L 191.984375 136.171875 L 208.96875 114.101562 L 215.769531 115.019531 L 226.144531 101.675781 L 216.410156 100.359375 L 211.941406 89.410156 L 201.117188 103.332031 L 203.761719 109.8125 L 200.34375 114.207031 L 186.714844 131.960938 L 180.398438 140.082031 L 170.410156 152.925781 L 172.699219 139.664062 C 172.277344 139.679688 171.859375 139.714844 171.441406 139.769531 C 163.574219 140.773438 157.988281 147.953125 158.972656 155.800781 C 159.957031 163.648438 167.136719 169.199219 175.003906 168.195312 C 182.871094 167.191406 188.457031 160.007812 187.472656 152.164062 Z M 187.472656 152.164062 " fill-opacity="1" fill-rule="evenodd"/></g></g></g><g clip-path="url(#9ca265cb82)"><g clip-path="url(#0e868311c7)"><g clip-path="url(#7fdb7d35de)"><path fill="#f2f1ee" d="M 176.664062 181.453125 C 161.460938 183.394531 147.578125 172.664062 145.679688 157.496094 C 143.777344 142.332031 154.574219 128.449219 169.777344 126.507812 C 173.453125 126.039062 177.160156 126.300781 180.714844 127.285156 L 186.8125 119.445312 C 181.035156 117.191406 174.804688 116.433594 168.613281 117.222656 C 148.273438 119.820312 133.828125 138.394531 136.371094 158.6875 C 138.914062 178.976562 157.484375 193.335938 177.828125 190.742188 C 198.171875 188.144531 212.617188 169.570312 210.074219 149.277344 C 209.390625 143.8125 207.507812 138.59375 204.550781 133.972656 L 198.296875 142.015625 C 199.566406 144.675781 200.398438 147.539062 200.765625 150.464844 C 202.664062 165.628906 191.867188 179.511719 176.664062 181.453125 Z M 176.664062 181.453125 " fill-opacity="1" fill-rule="evenodd"/></g></g></g><g fill="#f2f1ee" fill-opacity="1"><g transform="translate(108.29843, 245.25848)"><g><path d="M 5.988281 -27.882812 L 7.058594 -32.84375 L 21 -32.84375 L 19.929688 -27.882812 L 15.371094 -27.882812 L 9.472656 0 L 4.648438 0 L 10.546875 -27.882812 Z M 5.988281 -27.882812 "/></g></g></g><g fill="#f2f1ee" fill-opacity="1"><g transform="translate(125.591227, 245.25848)"><g><path d="M 0.445312 0 L 12.378906 -32.84375 L 18.277344 -32.84375 L 16.265625 0 L 11.574219 0 L 12.066406 -6.703125 L 7.417969 -6.703125 L 5.140625 0 Z M 13.316406 -22.164062 L 13.359375 -23.011719 L 13.09375 -23.011719 L 12.78125 -22.164062 L 9.207031 -11.796875 L 12.511719 -11.796875 Z M 13.316406 -22.164062 "/></g></g></g><g fill="#f2f1ee" fill-opacity="1"><g transform="translate(145.475676, 245.25848)"><g><path d="M 10.410156 0 L 10.8125 -13.851562 L 9.519531 -13.851562 L 6.613281 0 L 1.789062 0 L 8.757812 -32.84375 L 13.585938 -32.84375 C 19.347656 -32.84375 21.089844 -29.625 19.796875 -23.371094 C 19.082031 -20.109375 17.605469 -17.160156 15.503906 -15.90625 L 15.238281 0 Z M 10.5 -18.320312 C 11.171875 -18.320312 12.066406 -18.367188 12.914062 -19.035156 C 13.761719 -19.707031 14.613281 -20.867188 15.105469 -23.191406 C 15.59375 -25.515625 15.28125 -26.722656 14.703125 -27.390625 C 14.121094 -28.0625 13.226562 -28.0625 12.554688 -28.0625 Z M 10.5 -18.320312 "/></g></g></g><g fill="#f2f1ee" fill-opacity="1"><g transform="translate(164.779231, 245.25848)"><g><path d="M 13.988281 -21.046875 L 15.058594 -26.097656 C 15.238281 -26.988281 15.148438 -27.660156 14.835938 -28.152344 C 14.65625 -28.375 14.34375 -28.507812 13.941406 -28.507812 C 13.09375 -28.507812 12.554688 -27.882812 12.242188 -27.300781 C 12.066406 -26.945312 11.929688 -26.542969 11.839844 -26.097656 L 7.640625 -6.34375 C 7.417969 -5.496094 7.507812 -4.78125 7.863281 -4.289062 C 8.042969 -4.066406 8.3125 -3.933594 8.714844 -3.933594 C 9.5625 -3.933594 10.097656 -4.46875 10.410156 -5.140625 C 10.546875 -5.40625 10.722656 -5.808594 10.859375 -6.34375 L 12.109375 -12.289062 L 10.1875 -12.289062 L 11.039062 -16.355469 L 17.785156 -16.355469 L 14.34375 0 L 11.484375 0 L 11.214844 -1.5625 C 10.097656 -0.445312 8.625 0.359375 7.058594 0.359375 C 5.496094 0.359375 4.511719 -0.0429688 3.84375 -0.757812 C 3.171875 -1.429688 2.816406 -2.277344 2.679688 -3.171875 C 2.457031 -4.199219 2.546875 -5.363281 2.90625 -6.746094 L 7.015625 -26.097656 C 7.328125 -27.390625 7.820312 -28.554688 8.535156 -29.625 C 9.207031 -30.519531 9.921875 -31.414062 10.949219 -32.082031 C 11.976562 -32.753906 13.316406 -33.199219 14.925781 -33.199219 C 16.535156 -33.199219 17.652344 -32.753906 18.410156 -32.082031 C 19.167969 -31.414062 19.617188 -30.519531 19.796875 -29.625 C 20.109375 -28.644531 20.109375 -27.480469 19.886719 -26.097656 L 18.8125 -21.046875 Z M 13.988281 -21.046875 "/></g></g></g><g fill="#f2f1ee" fill-opacity="1"><g transform="translate(184.038114, 245.25848)"><g><path d="M 8.757812 -32.84375 L 19.796875 -32.84375 L 18.722656 -27.882812 L 12.511719 -27.882812 L 10.679688 -19.257812 L 15.148438 -19.257812 L 14.03125 -13.988281 L 9.5625 -13.988281 L 7.640625 -4.960938 L 13.851562 -4.960938 L 12.824219 0 L 1.789062 0 Z M 8.757812 -32.84375 "/></g></g></g><g fill="#f2f1ee" fill-opacity="1"><g transform="translate(200.928757, 245.25848)"><g><path d="M 5.988281 -27.882812 L 7.058594 -32.84375 L 21 -32.84375 L 19.929688 -27.882812 L 15.371094 -27.882812 L 9.472656 0 L 4.648438 0 L 10.546875 -27.882812 Z M 5.988281 -27.882812 "/></g></g></g><g fill="#f2f1ee" fill-opacity="1"><g transform="translate(218.221557, 245.25848)"><g><path d="M 8.757812 -32.84375 L 13.585938 -32.84375 L 6.613281 0 L 1.789062 0 Z M 8.757812 -32.84375 "/></g></g></g><g fill="#f2f1ee" fill-opacity="1"><g transform="translate(229.794852, 245.25848)"><g><path d="M 10.5 -17.113281 L 10.410156 -18.632812 L 10.144531 -18.632812 L 6.210938 0 L 1.789062 0 L 8.757812 -32.84375 L 13.046875 -32.84375 L 14.074219 -15.730469 L 14.164062 -14.210938 L 14.433594 -14.210938 L 18.410156 -32.84375 L 22.835938 -32.84375 L 15.863281 0 L 11.574219 0 Z M 10.5 -17.113281 "/></g></g></g><g fill="#f2f1ee" fill-opacity="1"><g transform="translate(250.617662, 245.25848)"><g><path d="M 13.988281 -21.046875 L 15.058594 -26.097656 C 15.238281 -26.988281 15.148438 -27.660156 14.835938 -28.152344 C 14.65625 -28.375 14.34375 -28.507812 13.941406 -28.507812 C 13.09375 -28.507812 12.554688 -27.882812 12.242188 -27.300781 C 12.066406 -26.945312 11.929688 -26.542969 11.839844 -26.097656 L 7.640625 -6.34375 C 7.417969 -5.496094 7.507812 -4.78125 7.863281 -4.289062 C 8.042969 -4.066406 8.3125 -3.933594 8.714844 -3.933594 C 9.5625 -3.933594 10.097656 -4.46875 10.410156 -5.140625 C 10.546875 -5.40625 10.722656 -5.808594 10.859375 -6.34375 L 12.109375 -12.289062 L 10.1875 -12.289062 L 11.039062 -16.355469 L 17.785156 -16.355469 L 14.34375 0 L 11.484375 0 L 11.214844 -1.5625 C 10.097656 -0.445312 8.625 0.359375 7.058594 0.359375 C 5.496094 0.359375 4.511719 -0.0429688 3.84375 -0.757812 C 3.171875 -1.429688 2.816406 -2.277344 2.679688 -3.171875 C 2.457031 -4.199219 2.546875 -5.363281 2.90625 -6.746094 L 7.015625 -26.097656 C 7.328125 -27.390625 7.820312 -28.554688 8.535156 -29.625 C 9.207031 -30.519531 9.921875 -31.414062 10.949219 -32.082031 C 11.976562 -32.753906 13.316406 -33.199219 14.925781 -33.199219 C 16.535156 -33.199219 17.652344 -32.753906 18.410156 -32.082031 C 19.167969 -31.414062 19.617188 -30.519531 19.796875 -29.625 C 20.109375 -28.644531 20.109375 -27.480469 19.886719 -26.097656 L 18.8125 -21.046875 Z M 13.988281 -21.046875 "/></g></g></g></svg>