<?xml version="1.0" encoding="utf-8"?>
<!-- Generator: Adobe Illustrator 27.4.0, SVG Export Plug-In . SVG Version: 6.00 Build 0)  -->
<svg version="1.1" id="Layer_1" xmlns="http://www.w3.org/2000/svg" xmlns:xlink="http://www.w3.org/1999/xlink" x="0px" y="0px"
	 viewBox="0 0 224 220" style="enable-background:new 0 0 224 220;" xml:space="preserve">
<style type="text/css">
	.st0{clip-path:url(#SVGID_00000138543645466609474590000017135427092715666091_);}
	.st1{clip-path:url(#SVGID_00000106834296903295605050000006383322250536003233_);}
	.st2{clip-path:url(#SVGID_00000065036211948984080020000010407948769229474727_);}
	.st3{fill-rule:evenodd;clip-rule:evenodd;fill:#739278;}
	.st4{clip-path:url(#SVGID_00000110437122595695982150000006998275373352282762_);}
	.st5{clip-path:url(#SVGID_00000076586773506833799250000001760435189906706085_);}
	.st6{clip-path:url(#SVGID_00000176731204264686882630000000411433451960363429_);}
	.st7{fill-rule:evenodd;clip-rule:evenodd;fill:#404140;}
	.st8{fill:#404140;}
</style>
<g>
	<defs>
		<rect id="SVGID_1_" x="85.3" y="6" width="92" height="106.7"/>
	</defs>
	<clipPath id="SVGID_00000169537949076718349910000002989591538500405155_">
		<use xlink:href="#SVGID_1_"  style="overflow:visible;"/>
	</clipPath>
	<g style="clip-path:url(#SVGID_00000169537949076718349910000002989591538500405155_);">
		<g>
			<defs>
				
					<rect id="SVGID_00000103962443074356699960000008481600549829344904_" x="52.6" y="28.8" transform="matrix(0.8925 -0.451 0.451 0.8925 -22.8291 64.811)" width="144" height="103"/>
			</defs>
			<clipPath id="SVGID_00000052093318679396045070000000570727785499290038_">
				<use xlink:href="#SVGID_00000103962443074356699960000008481600549829344904_"  style="overflow:visible;"/>
			</clipPath>
			<g style="clip-path:url(#SVGID_00000052093318679396045070000000570727785499290038_);">
				<g>
					<defs>
						
							<rect id="SVGID_00000083786661388248227130000002725454037386985093_" x="52.6" y="28.8" transform="matrix(0.8925 -0.451 0.451 0.8925 -22.8291 64.811)" width="144" height="103"/>
					</defs>
					<clipPath id="SVGID_00000006672567243699296780000011424840126369465232_">
						<use xlink:href="#SVGID_00000083786661388248227130000002725454037386985093_"  style="overflow:visible;"/>
					</clipPath>
					<g style="clip-path:url(#SVGID_00000006672567243699296780000011424840126369465232_);">
						<path class="st3" d="M124.5,89.9c-0.3-2.7-1.3-5.4-2.7-7.7l-0.8-1.3l9.6-12.3l22.6-29.4l9.1,1.2l13.8-17.8l-13-1.8l-6-14.6
							l-14.4,18.6l3.5,8.6l-4.6,5.9l-18.2,23.7l-8.4,10.8l-13.3,17.1l3.1-17.7c-0.6,0-1.1,0.1-1.7,0.1
							c-10.5,1.3-17.9,10.9-16.6,21.4c1.3,10.5,10.9,17.9,21.4,16.5C118.4,109.9,125.8,100.3,124.5,89.9z"/>
					</g>
				</g>
			</g>
		</g>
	</g>
</g>
<g>
	<defs>
		<rect id="SVGID_00000028327317527801127740000011393328507620318351_" x="54.7" y="42" width="101.3" height="100"/>
	</defs>
	<clipPath id="SVGID_00000045587704644948899490000007449302138002644870_">
		<use xlink:href="#SVGID_00000028327317527801127740000011393328507620318351_"  style="overflow:visible;"/>
	</clipPath>
	<g style="clip-path:url(#SVGID_00000045587704644948899490000007449302138002644870_);">
		<g>
			<defs>
				
					<rect id="SVGID_00000005240374511572130120000001880683573871520394_" x="52.6" y="28.8" transform="matrix(0.8925 -0.451 0.451 0.8925 -22.8291 64.811)" width="144" height="103"/>
			</defs>
			<clipPath id="SVGID_00000103237749402151505470000007626236467720488894_">
				<use xlink:href="#SVGID_00000005240374511572130120000001880683573871520394_"  style="overflow:visible;"/>
			</clipPath>
			<g style="clip-path:url(#SVGID_00000103237749402151505470000007626236467720488894_);">
				<g>
					<defs>
						
							<rect id="SVGID_00000062163595428192157060000004583613770282652809_" x="52.6" y="28.8" transform="matrix(0.8925 -0.451 0.451 0.8925 -22.8291 64.811)" width="144" height="103"/>
					</defs>
					<clipPath id="SVGID_00000171001298872548134920000006518545075287589299_">
						<use xlink:href="#SVGID_00000062163595428192157060000004583613770282652809_"  style="overflow:visible;"/>
					</clipPath>
					<g style="clip-path:url(#SVGID_00000171001298872548134920000006518545075287589299_);">
						<path class="st7" d="M110.1,128.9c-20.3,2.6-38.8-11.7-41.3-31.9c-2.5-20.2,11.9-38.7,32.1-41.3c4.9-0.6,9.8-0.3,14.6,1
							l8.1-10.5c-7.7-3-16-4-24.3-3c-27.1,3.5-46.4,28.2-43,55.3c3.4,27.1,28.2,46.2,55.3,42.7c27.1-3.5,46.4-28.2,43-55.3
							c-0.9-7.3-3.4-14.2-7.4-20.4l-8.3,10.7c1.7,3.5,2.8,7.4,3.3,11.3C144.8,107.8,130.4,126.3,110.1,128.9L110.1,128.9z"/>
					</g>
				</g>
			</g>
		</g>
	</g>
</g>
<g>
	<g transform="translate(109.340285, 260.991955)">
		<g>
			<path class="st8" d="M-99.6-84.2l1.4-6.6h18.6l-1.4,6.6h-6.1L-94.9-47h-6.4l7.9-37.2H-99.6z"/>
		</g>
	</g>
</g>
<g>
	<g transform="translate(126.633082, 260.991955)">
		<g>
			<path class="st8" d="M-101.2-47l15.9-43.8h7.9L-80.1-47h-6.3l0.7-8.9h-6.2l-3,8.9H-101.2z M-84-76.6l0.1-1.1h-0.4l-0.4,1.1
				l-4.8,13.8h4.4L-84-76.6z"/>
		</g>
	</g>
</g>
<g>
	<g transform="translate(146.517531, 260.991955)">
		<g>
			<path class="st8" d="M-81.3-47l0.5-18.5h-1.7L-86.3-47h-6.4l9.3-43.8h6.4c7.7,0,10,4.3,8.3,12.6c-1,4.3-2.9,8.3-5.7,10L-74.8-47
				H-81.3z M-81.2-71.4c0.9,0,2.1-0.1,3.2-1c1.1-0.9,2.3-2.4,2.9-5.5c0.7-3.1,0.2-4.7-0.5-5.6c-0.8-0.9-2-0.9-2.9-0.9L-81.2-71.4z"
				/>
		</g>
	</g>
</g>
<g>
	<g transform="translate(165.821086, 260.991955)">
		<g>
			<path class="st8" d="M-70.1-75.1l1.4-6.7c0.2-1.2,0.1-2.1-0.3-2.7c-0.2-0.3-0.7-0.5-1.2-0.5c-1.1,0-1.8,0.8-2.3,1.6
				c-0.2,0.5-0.4,1-0.5,1.6l-5.6,26.3c-0.3,1.1-0.2,2.1,0.3,2.7c0.2,0.3,0.6,0.5,1.1,0.5c1.1,0,1.8-0.7,2.3-1.6
				c0.2-0.4,0.4-0.9,0.6-1.6l1.7-7.9h-2.6l1.1-5.4h9L-69.6-47h-3.8l-0.4-2.1c-1.5,1.5-3.5,2.6-5.5,2.6c-2.1,0-3.4-0.5-4.3-1.5
				c-0.9-0.9-1.4-2-1.6-3.2c-0.3-1.4-0.2-2.9,0.3-4.8l5.5-25.8c0.4-1.7,1.1-3.3,2-4.7c0.9-1.2,1.8-2.4,3.2-3.3
				c1.4-0.9,3.2-1.5,5.3-1.5c2.1,0,3.6,0.6,4.6,1.5c1,0.9,1.6,2.1,1.8,3.3c0.4,1.3,0.4,2.9,0.1,4.7l-1.4,6.7H-70.1z"/>
		</g>
	</g>
</g>
<g>
	<g transform="translate(185.079969, 260.991955)">
		<g>
			<path class="st8" d="M-70.6-90.8h14.7l-1.4,6.6h-8.3l-2.4,11.5h6l-1.5,7h-6l-2.6,12h8.3l-1.4,6.6h-14.7L-70.6-90.8z"/>
		</g>
	</g>
</g>
<g>
	<g transform="translate(201.970612, 260.991955)">
		<g>
			<path class="st8" d="M-68.7-84.2l1.4-6.6h18.6l-1.4,6.6h-6.1L-64-47h-6.4l7.9-37.2H-68.7z"/>
		</g>
	</g>
</g>
<g>
	<g transform="translate(219.263412, 260.991955)">
		<g>
			<path class="st8" d="M-59.2-90.8h6.4L-62.1-47h-6.4L-59.2-90.8z"/>
		</g>
	</g>
</g>
<g>
	<g transform="translate(230.836707, 260.991955)">
		<g>
			<path class="st8" d="M-53.1-69.8l-0.1-2h-0.4L-58.8-47h-5.9l9.3-43.8h5.7l1.4,22.8l0.1,2h0.4l5.3-24.8h5.9L-45.9-47h-5.7
				L-53.1-69.8z"/>
		</g>
	</g>
</g>
<g>
	<g transform="translate(251.659517, 260.991955)">
		<g>
			<path class="st8" d="M-41.5-75.1l1.4-6.7c0.2-1.2,0.1-2.1-0.3-2.7c-0.2-0.3-0.7-0.5-1.2-0.5c-1.1,0-1.8,0.8-2.3,1.6
				c-0.2,0.5-0.4,1-0.5,1.6l-5.6,26.3c-0.3,1.1-0.2,2.1,0.3,2.7c0.2,0.3,0.6,0.5,1.1,0.5c1.1,0,1.8-0.7,2.3-1.6
				c0.2-0.4,0.4-0.9,0.6-1.6l1.7-7.9h-2.6l1.1-5.4h9L-41-47h-3.8l-0.4-2.1c-1.5,1.5-3.5,2.6-5.5,2.6c-2.1,0-3.4-0.5-4.3-1.5
				c-0.9-0.9-1.4-2-1.6-3.2c-0.3-1.4-0.2-2.9,0.3-4.8l5.5-25.8c0.4-1.7,1.1-3.3,2-4.7c0.9-1.2,1.8-2.4,3.2-3.3
				c1.4-0.9,3.2-1.5,5.3-1.5c2.1,0,3.6,0.6,4.6,1.5c1,0.9,1.6,2.1,1.8,3.3c0.4,1.3,0.4,2.9,0.1,4.7l-1.4,6.7H-41.5z"/>
		</g>
	</g>
</g>
</svg>
