<?xml version="1.0" encoding="utf-8"?>
<!-- Generator: Adobe Illustrator 27.4.0, SVG Export Plug-In . SVG Version: 6.00 Build 0)  -->
<svg version="1.1" id="Layer_1" xmlns="http://www.w3.org/2000/svg" xmlns:xlink="http://www.w3.org/1999/xlink" x="0px" y="0px"
	 viewBox="0 0 224 213.3" style="enable-background:new 0 0 224 213.3;" xml:space="preserve">
<style type="text/css">
	.st0{clip-path:url(#SVGID_00000178923685419816238160000006038287942358240938_);}
	.st1{clip-path:url(#SVGID_00000042694326441319709480000017656452404530900636_);}
	.st2{clip-path:url(#SVGID_00000056414417742752027040000004367569487126314421_);}
	.st3{fill-rule:evenodd;clip-rule:evenodd;fill:#739278;}
	.st4{clip-path:url(#SVGID_00000013168011421742639450000009079390378207566467_);}
	.st5{clip-path:url(#SVGID_00000025417806156833939170000007937428242694140348_);}
	.st6{clip-path:url(#SVGID_00000076597684325890280410000017498483544919042221_);}
	.st7{fill-rule:evenodd;clip-rule:evenodd;fill:#F2F1EE;}
	.st8{fill:#F2F1EE;}
</style>
<g>
	<defs>
		<rect id="SVGID_1_" x="69.7" width="92" height="106.7"/>
	</defs>
	<clipPath id="SVGID_00000018935338812909342410000017135087148383760051_">
		<use xlink:href="#SVGID_1_"  style="overflow:visible;"/>
	</clipPath>
	<g style="clip-path:url(#SVGID_00000018935338812909342410000017135087148383760051_);">
		<g>
			<defs>
				
					<rect id="SVGID_00000126291828477979895510000015155371883231202479_" x="37" y="23.2" transform="matrix(0.8925 -0.451 0.451 0.8925 -21.9524 57.1971)" width="144" height="103"/>
			</defs>
			<clipPath id="SVGID_00000098197998376976726750000010971828246284753842_">
				<use xlink:href="#SVGID_00000126291828477979895510000015155371883231202479_"  style="overflow:visible;"/>
			</clipPath>
			<g style="clip-path:url(#SVGID_00000098197998376976726750000010971828246284753842_);">
				<g>
					<defs>
						
							<rect id="SVGID_00000077298471713627794950000004364418629028047262_" x="37" y="23.2" transform="matrix(0.8925 -0.451 0.451 0.8925 -21.9524 57.1971)" width="144" height="103"/>
					</defs>
					<clipPath id="SVGID_00000025408185534288063620000000387884362313654418_">
						<use xlink:href="#SVGID_00000077298471713627794950000004364418629028047262_"  style="overflow:visible;"/>
					</clipPath>
					<g style="clip-path:url(#SVGID_00000025408185534288063620000000387884362313654418_);">
						<path class="st3" d="M109,84.2c-0.3-2.7-1.3-5.4-2.7-7.7l-0.8-1.3l9.6-12.3l22.6-29.4l9.1,1.2l13.8-17.8l-13-1.8l-6-14.6
							l-14.4,18.6l3.5,8.6l-4.6,5.9L108,57.3l-8.4,10.8L86.2,85.2l3.1-17.7c-0.6,0-1.1,0.1-1.7,0.1C77.1,69,69.7,78.6,71,89.1
							s10.9,17.9,21.4,16.5C102.8,104.3,110.3,94.7,109,84.2z"/>
					</g>
				</g>
			</g>
		</g>
	</g>
</g>
<g>
	<defs>
		<rect id="SVGID_00000131367571433784102520000016612978901818490301_" x="40.3" y="36" width="100" height="101.3"/>
	</defs>
	<clipPath id="SVGID_00000143579854610449635180000005573159538480043448_">
		<use xlink:href="#SVGID_00000131367571433784102520000016612978901818490301_"  style="overflow:visible;"/>
	</clipPath>
	<g style="clip-path:url(#SVGID_00000143579854610449635180000005573159538480043448_);">
		<g>
			<defs>
				
					<rect id="SVGID_00000039124945280863184750000008205981337817074083_" x="37" y="23.2" transform="matrix(0.8925 -0.451 0.451 0.8925 -21.9524 57.1971)" width="144" height="103"/>
			</defs>
			<clipPath id="SVGID_00000008865383364913469890000004210586164373315220_">
				<use xlink:href="#SVGID_00000039124945280863184750000008205981337817074083_"  style="overflow:visible;"/>
			</clipPath>
			<g style="clip-path:url(#SVGID_00000008865383364913469890000004210586164373315220_);">
				<g>
					<defs>
						
							<rect id="SVGID_00000147917963429012416720000002725507671592558009_" x="37" y="23.2" transform="matrix(0.8925 -0.451 0.451 0.8925 -21.9524 57.1971)" width="144" height="103"/>
					</defs>
					<clipPath id="SVGID_00000036238005691720062970000002763968724794605752_">
						<use xlink:href="#SVGID_00000147917963429012416720000002725507671592558009_"  style="overflow:visible;"/>
					</clipPath>
					<g style="clip-path:url(#SVGID_00000036238005691720062970000002763968724794605752_);">
						<path class="st7" d="M94.6,123.3c-20.3,2.6-38.8-11.7-41.3-31.9C50.7,71.1,65.1,52.6,85.4,50c4.9-0.6,9.8-0.3,14.6,1l8.1-10.5
							c-7.7-3-16-4-24.3-3c-27.1,3.5-46.4,28.2-43,55.3c3.4,27.1,28.2,46.2,55.3,42.7c27.1-3.5,46.4-28.2,43-55.3
							c-0.9-7.3-3.4-14.2-7.4-20.4l-8.3,10.7c1.7,3.5,2.8,7.4,3.3,11.3C129.2,102.2,114.8,120.7,94.6,123.3z"/>
					</g>
				</g>
			</g>
		</g>
	</g>
</g>
<g>
	<g transform="translate(108.29843, 245.25848)">
		<g>
			<path class="st8" d="M-96.9-74.1l1.4-6.6h18.6l-1.4,6.6h-6.1l-7.9,37.2h-6.4l7.9-37.2H-96.9z"/>
		</g>
	</g>
</g>
<g>
	<g transform="translate(125.591227, 245.25848)">
		<g>
			<path class="st8" d="M-98.5-36.9l15.9-43.8h7.9l-2.7,43.8h-6.3l0.7-8.9h-6.2l-3,8.9H-98.5z M-81.4-66.5l0.1-1.1h-0.4l-0.4,1.1
				l-4.8,13.8h4.4L-81.4-66.5z"/>
		</g>
	</g>
</g>
<g>
	<g transform="translate(145.475676, 245.25848)">
		<g>
			<path class="st8" d="M-78.6-36.9l0.5-18.5h-1.7l-3.9,18.5h-6.4l9.3-43.8h6.4c7.7,0,10,4.3,8.3,12.6c-1,4.3-2.9,8.3-5.7,10
				l-0.4,21.2H-78.6z M-78.5-61.3c0.9,0,2.1-0.1,3.2-1c1.1-0.9,2.3-2.4,2.9-5.5c0.7-3.1,0.2-4.7-0.5-5.6c-0.8-0.9-2-0.9-2.9-0.9
				L-78.5-61.3z"/>
		</g>
	</g>
</g>
<g>
	<g transform="translate(164.779231, 245.25848)">
		<g>
			<path class="st8" d="M-67.4-65l1.4-6.7c0.2-1.2,0.1-2.1-0.3-2.7c-0.2-0.3-0.7-0.5-1.2-0.5c-1.1,0-1.8,0.8-2.3,1.6
				c-0.2,0.5-0.4,1-0.5,1.6l-5.6,26.3c-0.3,1.1-0.2,2.1,0.3,2.7c0.2,0.3,0.6,0.5,1.1,0.5c1.1,0,1.8-0.7,2.3-1.6
				c0.2-0.4,0.4-0.9,0.6-1.6l1.7-7.9h-2.6l1.1-5.4h9l-4.6,21.8h-3.8l-0.4-2.1c-1.5,1.5-3.5,2.6-5.5,2.6c-2.1,0-3.4-0.5-4.3-1.5
				c-0.9-0.9-1.4-2-1.6-3.2c-0.3-1.4-0.2-2.9,0.3-4.8l5.5-25.8c0.4-1.7,1.1-3.3,2-4.7c0.9-1.2,1.8-2.4,3.2-3.3
				c1.4-0.9,3.2-1.5,5.3-1.5s3.6,0.6,4.6,1.5c1,0.9,1.6,2.1,1.8,3.3c0.4,1.3,0.4,2.9,0.1,4.7L-61-65H-67.4z"/>
		</g>
	</g>
</g>
<g>
	<g transform="translate(184.038114, 245.25848)">
		<g>
			<path class="st8" d="M-68-80.7h14.7l-1.4,6.6H-63l-2.4,11.5h6l-1.5,7h-6l-2.6,12h8.3l-1.4,6.6h-14.7L-68-80.7z"/>
		</g>
	</g>
</g>
<g>
	<g transform="translate(200.928757, 245.25848)">
		<g>
			<path class="st8" d="M-66-74.1l1.4-6.6H-46l-1.4,6.6h-6.1l-7.9,37.2h-6.4l7.9-37.2H-66z"/>
		</g>
	</g>
</g>
<g>
	<g transform="translate(218.221557, 245.25848)">
		<g>
			<path class="st8" d="M-56.6-80.7h6.4l-9.3,43.8h-6.4L-56.6-80.7z"/>
		</g>
	</g>
</g>
<g>
	<g transform="translate(229.794852, 245.25848)">
		<g>
			<path class="st8" d="M-50.4-59.7l-0.1-2h-0.4l-5.2,24.8H-62l9.3-43.8h5.7l1.4,22.8l0.1,2h0.4l5.3-24.8h5.9l-9.3,43.8H-49
				L-50.4-59.7z"/>
		</g>
	</g>
</g>
<g>
	<g transform="translate(250.617662, 245.25848)">
		<g>
			<path class="st8" d="M-38.8-65l1.4-6.7c0.2-1.2,0.1-2.1-0.3-2.7c-0.2-0.3-0.7-0.5-1.2-0.5c-1.1,0-1.8,0.8-2.3,1.6
				c-0.2,0.5-0.4,1-0.5,1.6l-5.6,26.3c-0.3,1.1-0.2,2.1,0.3,2.7c0.2,0.3,0.6,0.5,1.1,0.5c1.1,0,1.8-0.7,2.3-1.6
				c0.2-0.4,0.4-0.9,0.6-1.6l1.7-7.9h-2.6l1.1-5.4h9l-4.6,21.8h-3.8l-0.4-2.1c-1.5,1.5-3.5,2.6-5.5,2.6c-2.1,0-3.4-0.5-4.3-1.5
				c-0.9-0.9-1.4-2-1.6-3.2c-0.3-1.4-0.2-2.9,0.3-4.8l5.5-25.8c0.4-1.7,1.1-3.3,2-4.7c0.9-1.2,1.8-2.4,3.2-3.3
				c1.4-0.9,3.2-1.5,5.3-1.5c2.1,0,3.6,0.6,4.6,1.5c1,0.9,1.6,2.1,1.8,3.3c0.4,1.3,0.4,2.9,0.1,4.7l-1.4,6.7H-38.8z"/>
		</g>
	</g>
</g>
</svg>
