<?xml version="1.0" encoding="utf-8"?>
<!-- Generator: Adobe Illustrator 27.4.0, SVG Export Plug-In . SVG Version: 6.00 Build 0)  -->
<svg version="1.1" id="Layer_1" xmlns="http://www.w3.org/2000/svg" xmlns:xlink="http://www.w3.org/1999/xlink" x="0px" y="0px"
	 viewBox="0 0 1920 1080" style="enable-background:new 0 0 1920 1080;" xml:space="preserve">
<style type="text/css">
	.st0{opacity:0.2;clip-path:url(#SVGID_00000171721004202376221100000018284914232369094057_);fill:#DCD6CD;}
	.st1{clip-path:url(#SVGID_00000171721004202376221100000018284914232369094057_);}
	.st2{fill:#1A1E26;}
	.st3{fill:#1B3256;}
	.st4{fill:#FDD247;}
	.st5{fill:#D89E6F;}
	.st6{fill:#162B49;}
	.st7{fill:#DFE7F2;}
	.st8{fill:#FFFFFF;}
	.st9{fill:#181C23;}
	.st10{fill:#1E2128;}
	.st11{fill:#202A42;}
	.st12{fill:#233A68;}
	.st13{fill:#2B99FF;}
	.st14{fill:#D0DEE6;}
	.st15{opacity:0.23;fill:#D0DEE6;}
	.st16{fill:#007FDD;}
	.st17{opacity:0.2;fill:#FFB839;}
	.st18{fill:#FFE1B0;}
	.st19{fill:none;stroke:#222330;stroke-width:2.8062;stroke-linecap:round;stroke-linejoin:round;stroke-miterlimit:10;}
</style>
<g>
	<defs>
		<path id="SVGID_1_" d="M1254.3,351.34v369.94c0,4.34-3.51,7.85-7.85,7.85H670.63c-4.33,0-7.85-3.51-7.85-7.85V351.34
			c0-4.33,3.51-7.85,7.85-7.85h575.83C1250.79,343.49,1254.3,347.01,1254.3,351.34z"/>
	</defs>
	<clipPath id="SVGID_00000037650979938307288490000007384154876089705386_">
		<use xlink:href="#SVGID_1_"  style="overflow:visible;"/>
	</clipPath>
	<path style="opacity:0.2;clip-path:url(#SVGID_00000037650979938307288490000007384154876089705386_);fill:#DCD6CD;" d="
		M1257.8,509.37v227.13H661.54v-59.04c101.38-26.14,183.66,31.02,232.17,14.72c28.78-9.66,31.88-37.88,41.97-56.03
		c6.34-11.38,15.21-22.51,29.78-29.95c17.22-8.8,39.09-10.52,59.46-13.76c29.25-4.67,56-16.14,74.4-32.35
		C1139.11,525.05,1194.96,497.31,1257.8,509.37z"/>
	<g style="clip-path:url(#SVGID_00000037650979938307288490000007384154876089705386_);">
		<g>
			<path class="st2" d="M976.82,628.41c0,0-1.6,2.25-1.12,3.53c0.48,1.28,4.49,4.25,6.33,3.37c1.84-0.88-1.42-2.94-1.55-5.72
				C980.35,626.81,976.82,628.41,976.82,628.41z"/>
			<path class="st2" d="M999.27,629.66v2.67c0,0,5.84,2.48,7.85,1.52c2.01-0.96,1.99-1.33,0.96-1.99c-1.03-0.66-5.2-2.98-5.2-2.98
				L999.27,629.66z"/>
			<path class="st3" d="M995.96,580.13c-0.23,0.37,0.45,3.24,8.83,4.59c8.38,1.35,15.11,2.59,15.11,2.59l0.32-3.59l-17.96-6.54
				C1002.27,577.18,998.04,576.72,995.96,580.13z"/>
			<path class="st4" d="M1007.56,592.35c0.11-0.85,6.61-13.24,6.61-13.24l13-5.44l-7.22,13.72L1007.56,592.35z"/>
			<path class="st5" d="M996.69,610.65c1.06-0.19,2.1-0.42,3.14-0.8c1.37-0.51,2.5-1.34,3.68-2.1l1.49-21.9l-22.31-3.62l0.29,32.33
				l0.02,0.11c2.12,0.48,4.12,1.06,6.23,0.84l1.87-19.7l4.12-1.21L996.69,610.65z"/>
			<path class="st5" d="M1000,563.05v-8.44h-6.08l-0.01,8.34C996.23,564.54,998.38,565.25,1000,563.05z"/>
			<path class="st5" d="M1009.94,588.78l4.33-2.22l1.1,2.66c0,0-1.18,3.26-5.75,3.14C1005.04,592.25,1009.94,588.78,1009.94,588.78z
				"/>
			<path class="st5" d="M989.23,615.52l-9.52,15.3c0,0-2.41-0.98-2.89-2.42c-0.48-1.44,6.15-13.84,6.15-13.84L989.23,615.52z"/>
			<polygon class="st5" points="989.23,615.52 994.76,593.19 988.53,592.97 986.28,611.04 			"/>
			<polygon class="st5" points="1003.51,607.75 1003.51,629.66 999.27,629.66 996.69,610.65 			"/>
			<path class="st6" d="M982.87,602.13c0,0,4.28,3.44,12.79,2.47c8.51-0.97,8.39-3.01,8.39-3.01l0.95-17.6l-15.65,0.85l-6.48,10.94
				V602.13z"/>
			<path class="st3" d="M1006,562.76c0.66,1.4,1.18,3.88,1.9,8.49c1.28,8.19,2.78,12.47,0,13.43c-2.78,0.96-5.02-2.97-5.02-2.97
				l1.11-19.55C1003.99,562.16,1005.72,562.54,1006,562.76z"/>
			<path class="st7" d="M1004.99,564.26c0,0-7.23-1.67-14.53-1.3c0,0-8.25,1.98-7.77,10.23l0.03,5.11l0.03,9.7
				c0,0,5.95,5.07,13.58,3.04c7.63-2.03,8.66-5.17,8.66-5.17v-11.02v-9.05V564.26z"/>
			<path class="st3" d="M984.89,568.49"/>
			<path class="st7" d="M1001.6,563.67l-0.38,5.31l-0.31,4.26c0,0-1.13-1.44-2.44-3.1c-1.8-2.23-3.9-4.9-3.98-4.95L1001.6,563.67z"
				/>
			<path class="st3" d="M1002.35,561.69c-0.16-0.04-0.33-0.08-0.49-0.12l-1.22,0.66c0,0,5.02,6.87,3.99,20.42
				c0,4.01-0.9,14.5-0.9,14.5s1.65-1.08,2.15-2.9c0.5-1.82,1.25-17.88,1.25-17.88l-1.23-13.64
				C1004.71,562.38,1003.53,562.01,1002.35,561.69z"/>
			<path class="st3" d="M992.26,562.23c0,0,3.08,6.88,3.16,15.8c0.08,8.92-1.59,21.91-1.59,21.91s-10.63,0.97-11.02-2.97
				c-0.39-3.93,0-26.78,0-26.78S983.09,564.37,992.26,562.23z"/>
			<path class="st6" d="M982.78,571.07c0.02,0.33,3.5,6.57,3.5,6.57l2.75,8.03l5.73,3.55l-0.26,2.79c0,0-9.26-2-10.46-5.45
				C982.84,583.11,982.78,571.07,982.78,571.07z"/>
			<path class="st3" d="M990.69,574.73c-1.28-8.19-1.92-9.66-3.85-10.29c0,0-3.4,0.87-4.06,6.63c-0.67,5.76,2.89,14.12,2.89,14.12
				s2.25,3.94,5.02,2.97C993.47,587.2,991.97,582.92,990.69,574.73z"/>
			<path class="st8" d="M993.91,561.09c0,0,2.1,1.74,3.85,1.5c1.75-0.24,2.24-1.12,2.24-1.12l0.1-0.51l1.18,0.13l0.64,4.88
				l-3.05-1.86l-1.11,3.21c0,0-3.54-2.11-4.5-3.18c-0.96-1.07-1-1.9-1-1.9L993.91,561.09z"/>
			<path class="st5" d="M1007.73,550.93c0,5.6-3.39,14.45-10.14,10.14c-5.4-0.76-10.14-4.54-10.14-10.14
				c0-5.6,4.54-10.14,10.14-10.14S1007.73,545.33,1007.73,550.93z"/>
			<path class="st3" d="M985.67,585.19c-0.23,0.37,0.45,3.24,8.83,4.59c8.38,1.35,15.12,2.59,15.12,2.59l0.32-3.59l-17.96-6.54
				C991.97,582.23,987.75,581.78,985.67,585.19z"/>
			<path class="st9" d="M1008.08,551.32c0,0,0.11-3.92-1.5-5.95c-1.61-2.02-4.74-6.34-12.08-4.42c-7.33,1.92-7.09,7.45-7.02,9.38
				c0.08,1.93,0.39,4.55,1.7,6.14c1.31,1.59,4.66,3.81,4.66,3.81l0.14-4.19c0,0-2.07-0.64-1.72-2.48c0.36-1.85,1.91-0.16,1.91-0.16
				l0.59,2.24c0,0,1.51-2.29,2.33-5.02C997.91,547.94,999.58,553.14,1008.08,551.32z"/>
			<path class="st9" d="M997.77,549.88c0,0,0.98,1.27,0.7,2.64c-0.28,1.37-0.28,1.37-0.28,1.37s4.85,0.77,7.99,0.3
				c3.14-0.48,3.3-1.67,3.3-1.67s0.72-2.75-1.92-5.15C1004.92,544.96,997.77,549.88,997.77,549.88z"/>
			<path class="st9" d="M997.69,541.27c0,3-2.43,5.43-5.43,5.43c-3,0-5.43-2.43-5.43-5.43c0-3,2.43-5.43,5.43-5.43
				C995.26,535.84,997.69,538.27,997.69,541.27z"/>
			<path class="st2" d="M975.61,630.83c0.32-0.8,2.1-5.5,2.1-5.5c2.1,1.6,3.88,2.68,4.38,1.68c0,0,0.61,0.89,0,1.67
				c-0.61,0.77-1.33,2.81-1.33,2.81s-2.32,0.59-2.5,0.59C978.08,632.07,975.61,630.83,975.61,630.83z"/>
			<path class="st2" d="M998.71,625.55c0,0,4.22,0.21,4.79,0c0.58-0.2,0.57,0.92,0.51,1.94c-0.06,1.01,0.24,2.17,0.24,2.17
				l-0.24,2.05l-2.53,0.91l-2.22-1.5L998.71,625.55z"/>
		</g>
		<g>
			<path class="st5" d="M971.37,601.7c0,5.21-3.16,13.44-9.44,9.44c-5.21,0-9.44-4.23-9.44-9.44c0-5.21,4.22-9.44,9.44-9.44
				C967.15,592.26,971.37,596.48,971.37,601.7z"/>
			<path class="st10" d="M965.93,685.66l-0.41,2.23c0,0,1.55,0.91,2.51,0.7c0.96-0.21,5.88-1.52,5.08-2.23
				c-0.8-0.71-3.96-1.51-4.81-1.4C967.45,685.06,965.93,685.66,965.93,685.66z"/>
			<path class="st10" d="M946.42,685.66l-0.41,2.23c0,0,1.55,0.91,2.51,0.7c0.96-0.21,5.88-1.52,5.08-2.23
				c-0.8-0.71-3.95-1.51-4.81-1.4C947.94,685.06,946.42,685.66,946.42,685.66z"/>
			<path class="st4" d="M987.1,632.13c0,0,2.4-10.72,2-10.59c-0.4,0.13-11.46-4.28-11.46-4.28s-3.93,18.37-3.45,18.25
				c0.48-0.13,11.46,4.2,11.46,4.2L987.1,632.13z"/>
			<path class="st5" d="M984.08,634.82l3.02-2.69c1.25,0.52,1.69,1.53,1.28,3.04l-3.82,2.17L984.08,634.82z"/>
			<polygon class="st5" points="956.4,612.98 956.4,607.11 962.48,607.11 962.48,615.45 			"/>
			<path class="st11" d="M947.09,686.16c-0.27-0.05-0.49-0.16-0.71-0.29l5.59-17.16l-2.07-30.36l22.31-3.62l-0.29,32.33l-3.2,18.35
				c-0.61,0.15-1.24,0.28-1.91,0.27c-0.27,0-0.58,0-0.88-0.01v-14.82l-2.13-22.52l-4.12-1.21l-2.18,23.73l-8.83,15.51
				C948.03,686.33,947.32,686.2,947.09,686.16z"/>
			<path class="st12" d="M949.9,611.62v26.73l21.94,4.64l0.31,0.05l0.02-12.26l0.03-5.11c-0.8-1.82-1.59-3.44-2.23-4.59
				c0,0,0,0,0-0.02c-0.51-0.87-0.92-1.51-1.15-1.8c-0.08-0.1-0.18-0.2-0.28-0.28L949.9,611.62z"/>
			<path class="st12" d="M967.63,630.22c0.1,0.59,0.18,1.18,0.28,1.77c0.77,4.39,1.9,8.85,3.92,11.01c1,1.1,2.23,1.62,3.72,1.31
				c4.9-1.05,10.47-7.67,10.47-7.67l-1.72-1.9l-7.57,3.82l-2.95-8.88l-1.59-4c-0.8-1.82-1.59-3.44-2.23-4.59
				C968.81,622.27,966.86,625.12,967.63,630.22z"/>
			<path class="st12" d="M949.9,611.62l0.87,10.62l8.36,9.85c0,0,4.54,0.51,8.77-0.1c1.54-0.23,3.03-0.62,4.26-1.2
				c0.62-0.31,1.18-0.67,1.62-1.1c-0.49-1.38-1.05-2.75-1.59-4c-0.8-1.82-1.59-3.44-2.23-4.59c0,0,0,0,0-0.02
				c-0.51-0.87-0.92-1.51-1.15-1.8c-0.08-0.1-0.18-0.2-0.28-0.28C960.6,610.31,949.9,611.62,949.9,611.62z"/>
			<path class="st3" d="M949.9,611.63c-1.92,0.63-2.57,2.1-3.85,10.29c-1.28,8.19-2.78,12.47,0,13.43c2.78,0.96,5.02-2.97,5.02-2.97
				L949.9,611.63z"/>
			<path class="st12" d="M972.15,643.05c0,0-5.95,2.51-13.58,0.48c-7.63-2.03-8.66-5.17-8.66-5.17v-11.02h19.74L972.15,643.05z"/>
			<path class="st3" d="M971.37,642.42c0,0-5.42-9.9-5.55-13.54c-0.13-3.63,1.64,15.44,1.64,15.44l4.69-1.27L971.37,642.42z"/>
			<polygon class="st12" points="949.9,627.34 949.9,611.63 955.1,618.62 954.36,629.42 952.5,631.45 			"/>
			<path class="st12" d="M949.92,624.82l-2.14-10.66c0,0,0.24-2.45,2.12-2.53c1.89-0.08,4.22,6.59,4.22,6.59L949.92,624.82z"/>
			<path class="st12" d="M964.92,615.79c0,0-0.56-2.19-2.44-3.15c-1.87-0.96-7.49-3.29-8.13-0.9c-0.64,2.4,6.2,4.59,6.2,4.59
				L964.92,615.79z"/>
			<path class="st10" d="M961.05,611.03c0,0,2.44-1.2,2.6-5.45c2.75-0.99,1.95-8.21,7.47-7.11c0,0,0.78-1.79,2.45-2.88
				c-4.52-2.21-4.59-5.44-10.72-5.71c-10.9-0.48-12.85,7.9-12.12,12.53c0.73,4.63,5.66,7.53,5.66,7.53S958.19,609.92,961.05,611.03z
				"/>
			<path class="st5" d="M962.23,605.22c0,1.4,0.8,2.52,1.8,2.52c0.99,0,1.8-1.13,1.8-2.52c0-1.4-0.8-2.53-1.8-2.53
				C963.03,602.69,962.23,603.82,962.23,605.22z"/>
		</g>
		<g>
			<path class="st2" d="M1154.89,608.92c0,0-1.6,2.25-1.12,3.53c0.48,1.28,4.49,4.25,6.33,3.37c1.84-0.88-1.42-2.94-1.55-5.72
				C1158.42,607.31,1154.89,608.92,1154.89,608.92z"/>
			<path class="st2" d="M1177.34,610.17v2.67c0,0,5.84,2.49,7.85,1.53c2.01-0.96,1.99-1.33,0.96-1.99c-1.03-0.66-5.2-2.98-5.2-2.98
				L1177.34,610.17z"/>
			<path class="st3" d="M1174.03,560.64c-0.23,0.37,0.45,3.24,8.83,4.59c8.38,1.35,15.12,2.59,15.12,2.59l0.32-3.59l-17.96-6.54
				C1180.34,557.69,1176.11,557.23,1174.03,560.64z"/>
			<path class="st4" d="M1185.63,572.85c0.11-0.85,6.61-13.23,6.61-13.23l13-5.45l-7.22,13.72L1185.63,572.85z"/>
			<path class="st11" d="M1174.76,591.16c1.06-0.19,2.11-0.42,3.14-0.8c1.37-0.51,2.5-1.34,3.68-2.1l1.49-21.9l-22.31-3.62
				l0.29,32.33l0.02,0.11c2.12,0.48,4.12,1.06,6.23,0.84l1.87-19.7l4.12-1.21L1174.76,591.16z"/>
			<path class="st3" d="M1184.08,543.27c0.66,1.4,1.18,3.88,1.9,8.49c1.28,8.19,2.78,12.47,0,13.43c-2.78,0.96-5.02-2.97-5.02-2.97
				l1.11-19.55C1182.06,542.67,1183.79,543.05,1184.08,543.27z"/>
			<path class="st13" d="M1183.06,544.76c0,0-5.11-5.23-14.53-1.3c0,0-8.25,1.98-7.77,10.23l0.03,5.1l0.03,9.7
				c0,0,5.95,5.08,13.58,3.04c7.63-2.03,8.66-5.17,8.66-5.17v-11.02v-9.05V544.76z"/>
			<path class="st5" d="M1178.07,543.56v-8.44h-6.08l-0.01,8.34C1174.3,545.05,1176.45,545.76,1178.07,543.56z"/>
			<path class="st3" d="M1162.97,549"/>
			<path class="st7" d="M1179.67,544.18l-0.38,5.31l-0.31,4.26c0,0-1.13-1.44-2.44-3.1c-1.79-2.23-3.9-4.9-3.98-4.95L1179.67,544.18
				z"/>
			<path class="st5" d="M1188.01,569.28l4.33-2.22l1.1,2.66c0,0-1.18,3.26-5.75,3.14C1183.12,572.76,1188.01,569.28,1188.01,569.28z
				"/>
			<path class="st11" d="M1167.3,596.03l-9.52,15.31c0,0-2.41-0.97-2.89-2.42c-0.48-1.44,6.16-13.85,6.16-13.85L1167.3,596.03z"/>
			<path class="st3" d="M1180.42,542.2c-0.16-0.04-0.33-0.08-0.49-0.12l-1.22,0.67c0,0,5.02,6.87,3.99,20.42c0,4-0.9,14.5-0.9,14.5
				s1.65-1.08,2.15-2.9c0.5-1.82,1.25-17.88,1.25-17.88l-1.23-13.64C1182.78,542.89,1181.61,542.52,1180.42,542.2z"/>
			<path class="st11" d="M1181.58,588.26v21.91c0,0-3.28,0.77-4.24,0c-0.96-0.77-2.57-19.01-2.57-19.01L1181.58,588.26z"/>
			<polygon class="st11" points="1167.3,596.03 1172.83,573.69 1166.6,573.48 1164.35,591.55 			"/>
			<polygon class="st11" points="1175.83,546.48 1177.02,549 1178.71,548.48 1178.71,544.65 1176.7,544.19 			"/>
			<path class="st3" d="M1170.33,542.74c0,0,3.08,6.88,3.16,15.8c0.08,8.92-1.59,21.91-1.59,21.91s-10.63,0.96-11.02-2.97
				c-0.39-3.93,0-26.78,0-26.78S1161.16,544.88,1170.33,542.74z"/>
			<path class="st6" d="M1160.85,551.58c0.02,0.33,3.5,6.57,3.5,6.57l2.76,8.03l5.72,3.55l-0.26,2.79c0,0-9.26-2-10.46-5.45
				C1160.91,563.62,1160.85,551.58,1160.85,551.58z"/>
			<path class="st3" d="M1168.76,555.24c-1.28-8.19-1.92-9.66-3.85-10.29c0,0-3.4,0.87-4.06,6.63c-0.66,5.76,2.89,14.12,2.89,14.12
				s2.25,3.93,5.03,2.97C1171.54,567.71,1170.05,563.43,1168.76,555.24z"/>
			<path class="st8" d="M1171.98,541.6c0,0,2.1,1.74,3.85,1.5c1.75-0.24,2.24-1.12,2.24-1.12l0.1-0.51l1.18,0.13l0.64,4.88
				l-3.05-1.86l-1.11,3.21c0,0-3.54-2.11-4.5-3.18c-0.96-1.07-1-1.9-1-1.9L1171.98,541.6z"/>
			<path class="st5" d="M1186.15,531.98c0,5.33-3.23,13.75-9.65,9.65c-5.33,0-9.65-4.32-9.65-9.65c0-5.33,4.32-9.65,9.65-9.65
				C1181.83,522.33,1186.15,526.65,1186.15,531.98z"/>
			<path class="st11" d="M1179.29,549.49l-0.31,4.26c0,0-1.13-1.44-2.44-3.1l0.49-1.64l1.67-0.51L1179.29,549.49z"/>
			<path class="st3" d="M1163.74,565.7c-0.22,0.37,0.46,3.24,8.83,4.59c8.38,1.35,15.12,2.59,15.12,2.59l0.32-3.59l-17.96-6.54
				C1170.04,562.74,1165.82,562.29,1163.74,565.7z"/>
			<path class="st9" d="M1186.15,531.82l2.34-2.79c0,0-2.23-1.14-3.84-3.16c-1.61-2.02-4.74-6.34-12.08-4.43
				c-7.33,1.92-7.1,7.45-7.02,9.38c0.08,1.93,0.39,4.55,1.7,6.14c1.31,1.59,4.66,3.81,4.66,3.81l0.14-4.19c0,0-2.07-0.64-1.72-2.49
				c0.35-1.84,1.91-0.16,1.91-0.16l0.59,2.25c0,0,1.51,0.56,2.33-2.17C1175.98,531.31,1177.65,533.64,1186.15,531.82z"/>
		</g>
		<g>
			<g>
				<path class="st14" d="M1161.99,635.15c0,0.53-0.03,1.06-0.09,1.57c-1.86,17.22-34.09,30.94-73.57,30.94
					c-14.62,0-28.26-1.88-39.73-5.13c-19.86-5.63-33.21-15.36-33.9-26.47v-0.06c-0.01-0.28-0.03-0.56-0.03-0.84
					c0-0.28,0.01-0.56,0.03-0.84c0.19-3.35,1.53-6.58,3.86-9.6c1.33-1.73,2.98-3.4,4.94-4.98c12.44-10.17,36.81-17.08,64.83-17.08
					c32.42,0,59.93,9.23,69.77,22.06C1160.63,627.99,1161.99,631.5,1161.99,635.15z"/>
				<polygon class="st14" points="1161.99,624.71 1161.99,636.72 1161.9,636.72 1036.61,636.15 1014.71,636.05 1014.71,624.71 				
					"/>
				<path class="st14" d="M1048.61,651.17v11.36c-19.86-5.63-33.21-15.36-33.9-26.47v-0.06c-0.01-0.28-0.03-0.56-0.03-0.84
					c0-0.28,0.01-0.56,0.03-0.84v-9.6h3.86c1.33-1.73,2.98-3.4,4.94-4.98l3.97,4.98l9.14,11.44L1048.61,651.17z"/>
				<path class="st8" d="M1161.99,623.8c0,17.95-32.97,32.5-73.66,32.5c-14.62,0-28.26-1.88-39.73-5.13
					c-20.41-5.77-33.93-15.87-33.93-27.36c0-3.62,1.34-7.1,3.81-10.35c9.8-12.87,37.37-22.15,69.84-22.15
					C1129.02,591.3,1161.99,605.86,1161.99,623.8z"/>
				<path class="st15" d="M1125.62,630.72c0,11.37-31.09,20.58-69.43,20.58c-2.57,0-5.1-0.04-7.58-0.13
					c-20.41-5.77-33.93-15.87-33.93-27.36c0-3.62,1.34-7.1,3.81-10.35c10.85-2.1,23.8-3.3,37.7-3.3
					C1094.53,610.15,1125.62,619.36,1125.62,630.72z"/>
			</g>
			<g>
				<g>
					<path class="st16" d="M1116.95,609.59c0,14.61-7.16,25.03-26.46,25.03c-19.3,0-26.46-10.42-26.46-25.03
						c0-14.62,11.85-26.46,26.46-26.46C1105.1,583.13,1116.95,594.98,1116.95,609.59z"/>
					<path class="st4" d="M1134.19,542.92c-8.05,8.64-7.63,27.05-7.51,40.94c0.02,1.17,0.02,2.31,0.02,3.41
						c0,14.12,1.09,40.19-36.83,40.19c-37.9,0-34.67-32.26-34.67-45.17c0-1.44,0-2.93,0.01-4.41c0.04-11.77-0.03-24.36-4.44-30.79
						l45.82-32C1096.59,515.09,1142.93,533.56,1134.19,542.92z"/>
					<path class="st4" d="M1156.8,492.77c0,36.97-29.97,66.94-66.94,66.94c-36.97,0-66.93-29.97-66.93-66.94
						c0-36.97,29.97-66.93,66.93-66.93C1126.83,425.84,1156.8,455.81,1156.8,492.77z"/>
					<path class="st17" d="M1055.21,577.88c0.04-11.77-0.03-24.36-4.44-30.79c0,0,19.11,13.98,36.16,12.55
						C1103.3,558.27,1072.83,580.55,1055.21,577.88z"/>
					<g>
						<g>
							<path class="st8" d="M1086.23,596.96c0.01-1.97,0-3.77-0.07-5.72c-0.16-4.73-0.35-9.47-0.5-14.2
								c-0.19-5.99-0.44-11.98-0.76-17.96c-0.3-5.74-0.62-11.48-1.08-17.21c-0.49-6.05-0.98-12.11-2.44-18.02
								c-0.96-3.88-2.14-7.78-4.03-11.32c-1.27-2.37-2.92-4.64-5.17-6.17c-1.55-1.05-3.45-1.66-5.33-1.43
								c-2.08,0.26-3.94,1.4-5.16,3.1c-1.57,2.18-1.49,5.05-0.49,7.45c1.19,2.85,3.48,5.15,6.11,6.71c2.83,1.68,5.99,2.21,9.24,2.13
								c3.3-0.09,6.7-0.71,9.71-2.12c5.83-2.73,9.43-9.05,10.85-15.1c0.71-3.03,0.97-6.21,0.58-9.3c-0.29-2.26-1.87-4.14-3.81-5.24
								c-2.05-1.17-4.71-1.45-6.71-0.01c-1.95,1.41-2.91,3.72-3.12,6.05c-0.19,2.08,0.06,4.2,0.42,6.24
								c0.43,2.44,1.13,4.84,2.08,7.13c1.77,4.26,4.71,8.96,9.48,10.21c1.48,0.39,3.07,0.38,4.58,0.24
								c1.96-0.18,3.89-0.62,5.72-1.34c3.28-1.28,6.24-3.25,8.69-5.77c2.24-2.29,4.26-4.97,5.36-7.99c1.08-2.95,0.86-6.49-1.94-8.39
								c-3.12-2.12-7.02-0.99-9.73,1.21c-1.51,1.22-2.73,2.78-3.86,4.35c-1.14,1.59-2.15,3.28-3.03,5.03
								c-3.57,7.13-4.88,15-5.27,22.9c-0.43,8.64-0.76,17.29-1.04,25.93c-0.27,8.41-0.46,16.82-0.66,25.23
								c-0.1,4.32,0.03,8.66-0.11,12.98c-0.03,1,1.52,0.99,1.55,0c0.14-4.25,0.52-8.49,0.66-12.75c0.13-4.03,0.26-8.05,0.4-12.08
								c0.26-7.88,0.48-15.77,0.79-23.65c0.16-4.16,0.34-8.32,0.54-12.48c0.19-3.88,0.34-7.76,0.98-11.6
								c1.19-7.15,3.73-14.3,8.41-19.93c1.96-2.36,4.81-4.77,8.08-3.71c2.77,0.89,2.88,3.77,2.09,6.12
								c-0.92,2.71-2.82,5.13-4.79,7.16c-2.23,2.3-4.92,4.18-7.93,5.32c-1.64,0.62-3.38,1.06-5.13,1.21
								c-0.88,0.07-1.78,0.09-2.67,0.02c-0.32-0.02-0.2-0.01-0.55-0.07c-0.24-0.04-0.48-0.1-0.71-0.17
								c-0.93-0.26-1.63-0.63-2.51-1.25c-0.29-0.2-0.71-0.56-1.08-0.92c-0.38-0.37-0.74-0.76-1.08-1.16
								c-2.82-3.39-4.41-8.08-5.19-12.5c-0.18-1.02-0.28-1.82-0.35-2.93c-0.05-0.86-0.06-1.73,0.02-2.6c0.01-0.1,0.02-0.2,0.03-0.3
								c0.02-0.23-0.01,0.02,0-0.04c0.03-0.18,0.06-0.36,0.1-0.54c0.08-0.35,0.18-0.69,0.32-1.03c0.44-1.06,1.13-2.03,2.06-2.54
								c0.7-0.38,1.62-0.45,2.36-0.29c0.91,0.2,1.78,0.64,2.41,1.15c0.8,0.65,1.27,1.19,1.69,2.1c0.02,0.05-0.02-0.08,0.04,0.11
								c0.04,0.11,0.07,0.22,0.1,0.33c0.07,0.28,0.08,0.33,0.1,0.55c0.08,0.71,0.13,1.42,0.14,2.13c0.11,5.77-1.75,11.94-5.61,16.3
								c-1.9,2.15-4.22,3.7-6.97,4.54c-2.97,0.91-6.15,1.25-9.24,0.97c-2.86-0.26-5.5-1.44-7.65-3.36c-1.78-1.6-3.39-3.88-3.54-6.25
								c-0.07-1.06,0.1-1.99,0.64-2.9c0.47-0.79,1.18-1.44,2.01-1.9c0.16-0.09,0.32-0.17,0.49-0.24c0.05-0.02-0.15,0.05,0.05-0.02
								c0.1-0.04,0.21-0.08,0.31-0.11c0.16-0.05,0.32-0.1,0.48-0.13c0.09-0.02,0.19-0.04,0.29-0.06c0.04-0.01,0.08-0.01,0.12-0.02
								c0.16-0.03-0.19,0.02-0.04,0c0.38-0.04,0.77-0.05,1.15-0.02c0.09,0.01,0.18,0.02,0.26,0.03c-0.2-0.02-0.02,0,0.07,0.02
								c0.21,0.04,0.42,0.09,0.62,0.15c0.2,0.06,0.39,0.12,0.58,0.2c0.18,0.07,0.06,0.02,0.11,0.04c0.11,0.05,0.21,0.1,0.32,0.15
								c0.43,0.22,0.84,0.47,1.23,0.75c0.73,0.52,1.62,1.44,2.27,2.26c1.96,2.48,3.23,5.5,4.21,8.48c1.15,3.5,2.04,7.09,2.63,10.73
								c0.45,2.77,0.69,5.57,0.95,8.36c0.47,5.13,0.85,10.27,1.2,15.42c0.39,5.75,0.7,11.51,1.07,17.26
								c0.34,5.12,0.64,10.23,0.9,15.35c0.16,3.17,0.29,6.34,0.53,9.42c0.03,0.44,0.07,0.87,0.1,1.31
								C1085.25,597.61,1086.23,597.63,1086.23,596.96L1086.23,596.96z"/>
						</g>
					</g>
					<path class="st13" d="M1126.25,599.62c-0.23,2.07-0.59,4.17-1.13,6.24c-2.94,11.21-11.32,21.59-35.26,21.59
						c-21.56,0-29.8-10.42-32.92-21.81c-0.57-2.07-0.97-4.18-1.24-6.27c-0.86-6.57-0.51-12.87-0.51-17.09
						c22.98,7.48,46.79,8.01,71.48,1.57c0.02,1.17,0.02,2.31,0.02,3.41C1126.69,590.83,1126.76,595.15,1126.25,599.62z"/>
					<g>
						<path class="st16" d="M1126.25,599.62c-0.23,2.07-0.59,4.17-1.13,6.24c-11.07,2.93-22.26,4.4-33.52,4.4
							c-11.51,0-23.08-1.53-34.66-4.61c-0.57-2.07-0.97-4.18-1.24-6.27C1079.42,606.19,1103.1,606.26,1126.25,599.62z"/>
					</g>
					<path class="st18" d="M1144.01,502.81c2.17,0,3.94-1.75,3.96-3.93c0.14-18.58-5.6-28.86-11.82-37.2
						c-1.31-1.75-3.78-2.11-5.54-0.8c-1.75,1.31-2.11,3.79-0.8,5.54c5.03,6.74,10.38,15.35,10.25,32.41
						c-0.02,2.19,1.74,3.97,3.93,3.99C1143.99,502.81,1144,502.81,1144.01,502.81z"/>
					<path class="st18" d="M1120.17,454.53c0.87,0,1.74-0.28,2.47-0.86c1.71-1.36,1.99-3.85,0.63-5.56
						c-1.85-2.32-3.64-3.43-3.98-3.63c-1.88-1.11-4.31-0.48-5.42,1.4c-1.1,1.87-0.49,4.27,1.36,5.39c0.08,0.05,0.93,0.62,1.86,1.78
						C1117.86,454.02,1119.01,454.53,1120.17,454.53z"/>
				</g>
			</g>
		</g>
		<g>
			<g>
				<line class="st19" x1="1090.68" y1="573.84" x2="1098.42" y2="681.42"/>
				<line class="st19" x1="1126.54" y1="566.68" x2="1134.28" y2="674.26"/>
				<line class="st19" x1="1096.75" y1="658.17" x2="1132.63" y2="651.3"/>
				<line class="st19" x1="1095.49" y1="638.49" x2="1131.38" y2="631.62"/>
				<path class="st19" d="M1093.79,615.33c11.54-2.21,23.08-4.42,34.62-6.63"/>
				<path class="st19" d="M1091.8,591.09c11.82-2.26,23.64-4.53,35.46-6.79"/>
			</g>
			<g>
				<path class="st5" d="M1125.13,603.6c0,5.7,3.45,14.7,10.32,10.32c5.7,0,10.32-4.62,10.32-10.32c0-5.7-4.62-10.32-10.32-10.32
					C1129.75,593.28,1125.13,597.9,1125.13,603.6z"/>
				<path class="st10" d="M1130.57,688.55l0.41,2.23c0,0-1.55,0.91-2.51,0.69c-0.96-0.21-5.88-1.52-5.08-2.23
					c0.8-0.71,3.95-1.51,4.81-1.4C1129.06,687.95,1130.57,688.55,1130.57,688.55z"/>
				<path class="st10" d="M1150.08,688.55l0.41,2.23c0,0-1.55,0.91-2.51,0.69c-0.96-0.21-5.88-1.52-5.08-2.23
					c0.8-0.71,3.95-1.51,4.81-1.4C1148.56,687.95,1150.08,688.55,1150.08,688.55z"/>
				<polygon class="st5" points="1140.11,615.87 1140.11,610 1134.03,610 1134.02,618.34 				"/>
				<path class="st11" d="M1149.41,689.04c0.26-0.05,0.49-0.16,0.71-0.29l-5.59-17.15l2.07-30.36l-22.31-3.62l0.29,32.33l3.2,18.35
					c0.62,0.15,1.24,0.28,1.91,0.27c0.28,0,0.58,0,0.88-0.01v-14.82l2.13-22.52l4.12-1.21l2.18,23.73l8.83,15.51
					C1148.48,689.21,1149.18,689.09,1149.41,689.04z"/>
				<path class="st12" d="M1146.6,614.51v26.73l-21.94,4.64l-0.31,0.05l-0.03-12.26l-0.02-5.1c0.79-1.82,1.59-3.44,2.23-4.59
					c0,0,0,0,0-0.03c0.51-0.87,0.92-1.51,1.15-1.79c0.08-0.1,0.18-0.21,0.28-0.28L1146.6,614.51z"/>
				<path class="st12" d="M1128.87,633.11c-0.1,0.59-0.18,1.18-0.28,1.77c-0.77,4.39-1.9,8.85-3.92,11.01
					c-1,1.1-2.23,1.61-3.72,1.31c-4.9-1.05-10.47-7.67-10.47-7.67l1.72-1.9l7.57,3.82l2.95-8.88l1.59-4
					c0.79-1.82,1.59-3.44,2.23-4.59C1127.69,625.16,1129.64,628,1128.87,633.11z"/>
				<path class="st12" d="M1146.6,614.51l-0.87,10.62l-8.36,9.85c0,0-4.54,0.51-8.78-0.1c-1.54-0.23-3.03-0.62-4.26-1.21
					c-0.62-0.31-1.18-0.67-1.62-1.1c0.49-1.39,1.05-2.75,1.59-4c0.79-1.82,1.59-3.44,2.23-4.59c0,0,0,0,0-0.03
					c0.51-0.87,0.92-1.51,1.15-1.79c0.08-0.1,0.18-0.21,0.28-0.28C1135.9,613.2,1146.6,614.51,1146.6,614.51z"/>
				<path class="st3" d="M1146.61,614.52c1.92,0.63,2.56,2.1,3.85,10.29c1.28,8.19,2.78,12.47,0,13.43
					c-2.78,0.96-5.03-2.97-5.03-2.97L1146.61,614.52z"/>
				<path class="st5" d="M1112.19,637.62l-1.17-3.87c-1.34-0.21-2.24,0.42-2.67,1.93l2.14,3.84L1112.19,637.62z"/>
				<path class="st12" d="M1124.36,645.94c0,0,5.95,2.51,13.58,0.48c7.63-2.03,8.66-5.17,8.66-5.17v-11.02h-19.74L1124.36,645.94z"
					/>
				<path class="st3" d="M1125.13,645.31c0,0,5.42-9.9,5.55-13.54c0.13-3.63-1.64,15.44-1.64,15.44l-4.69-1.27L1125.13,645.31z"/>
				<polygon class="st12" points="1146.6,630.22 1146.61,614.52 1141.4,621.51 1142.15,632.31 1144.01,634.34 				"/>
				<path class="st12" d="M1146.59,627.71l2.14-10.66c0,0-0.23-2.45-2.12-2.53c-1.89-0.08-4.22,6.6-4.22,6.6L1146.59,627.71z"/>
				<path class="st12" d="M1131.59,618.67c0,0,0.56-2.19,2.44-3.15c1.87-0.96,7.49-3.29,8.13-0.9c0.64,2.39-6.2,4.58-6.2,4.58
					L1131.59,618.67z"/>
				<path class="st10" d="M1135.45,613.92c0,0-2.44-1.2-2.6-5.45c-0.16-4.25-1.95-8.22-7.47-7.11c-5.52,1.1-2.63-8.12,8.27-8.6
					c10.9-0.48,12.85,7.9,12.12,12.53c-0.73,4.63-5.66,7.53-5.66,7.53S1138.32,612.8,1135.45,613.92z"/>
				<path class="st5" d="M1134.28,608.11c0,1.39-0.8,2.52-1.79,2.52c-0.99,0-1.8-1.13-1.8-2.52c0-1.4,0.8-2.53,1.8-2.53
					C1133.48,605.58,1134.28,606.71,1134.28,608.11z"/>
			</g>
		</g>
		<g>
			<g>
				<path class="st12" d="M1042.67,578.5c-0.02-0.05-11.64-26.58-11.66-26.62c-0.17-0.4-0.13-0.84,0.08-1.19l9.17-15.35
					c0.84-1.35,2.89-0.16,2.11,1.24c0,0-9.01,15.45-9.01,15.45l0.05-1.24l13.36,25.75C1048.12,579.31,1044,581.31,1042.67,578.5
					L1042.67,578.5z"/>
			</g>
			<g>
				<path class="st5" d="M1060.65,553.6c0.37,5.69,0.09,9.99-9.64,10.96c-5.69,0.37-10.59-3.95-10.96-9.64
					c-0.37-5.69,3.95-10.59,9.64-10.96C1055.38,543.6,1060.28,547.91,1060.65,553.6z"/>
				<polygon class="st5" points="1046.49,566.81 1046.11,560.95 1052.18,560.56 1052.72,568.88 				"/>
				<path class="st9" d="M1040.12,556c0,0,0.46,2.46,2.07,4.69c1.61,2.23,4.11,3.18,4.11,3.18s3.2-0.63,4.69,0.36
					c1.49,0.99,5.93-3.38,5.36-9.76c-0.57-6.38,2.6-5.89,2.6-5.89s3.66-6.63-6.33-5.34c-10,1.29-7.09,1.58-7.09,1.58L1040.12,556z"
					/>
				<path class="st4" d="M1050.75,549.09c0.26,4.13-2.79,7.69-6.82,7.95c-4.03,0.26-7.52-2.88-7.78-7.01
					c-0.27-4.13,2.79-7.69,6.82-7.95C1047,541.82,1050.49,544.96,1050.75,549.09z"/>
				<path class="st9" d="M1049.94,548.33c0.27,4.16-2.89,7.74-7.05,8.01c-4.16,0.27-7.75-2.89-8.01-7.05
					c-0.27-4.16,2.89-7.74,7.05-8.01C1046.08,541.02,1049.67,544.17,1049.94,548.33z"/>
				<path class="st5" d="M1054.03,557.14c0.09,1.39,1.14,2.46,2.36,2.38c1.21-0.08,2.12-1.27,2.03-2.66
					c-0.09-1.39-1.15-2.46-2.36-2.38C1054.85,554.56,1053.94,555.75,1054.03,557.14z"/>
			</g>
			<path class="st10" d="M1055.45,639.32l-0.41,2.23c0,0,1.55,0.91,2.51,0.7c0.96-0.21,5.88-1.52,5.08-2.23
				c-0.8-0.71-3.96-1.51-4.81-1.4C1056.96,638.72,1055.45,639.32,1055.45,639.32z"/>
			<path class="st10" d="M1035.94,639.32l-0.41,2.23c0,0,1.55,0.91,2.51,0.7c0.96-0.21,5.88-1.52,5.08-2.23
				c-0.8-0.71-3.96-1.51-4.81-1.4C1037.45,638.72,1035.94,639.32,1035.94,639.32z"/>
			<path class="st11" d="M1059.82,594.95c-0.05-0.11-0.09-0.23-0.14-0.34c-0.65-0.12-1.24-0.47-1.6-1.21
				c-0.59-1.21-1.36-3.15-2.64-3.99l-16.02,2.6l2.07,30.36l-5.59,17.16c0.22,0.13,0.45,0.24,0.71,0.29c0.23,0.05,0.93,0.17,1.57,0.2
				l8.83-15.51l2.18-23.73l4.12,1.21l2.13,22.52v14.82c0.3,0.02,0.6,0.01,0.88,0.01c0.67,0.01,1.29-0.12,1.91-0.27l3.2-18.35
				l0.22-24.4C1060.91,596.24,1060.22,595.83,1059.82,594.95z"/>
			<path class="st8" d="M1054.43,569.45c0,0-0.56-2.19-2.44-3.15c-1.87-0.96-7.49-3.29-8.13-0.9c-0.64,2.39,6.2,4.58,6.2,4.58
				L1054.43,569.45z"/>
			<path class="st12" d="M1059.07,586.62c-0.78-4.98-2.05-9.85-3.06-14.78l-16.59-6.56v26.73l20.74,4.39
				C1059.82,593.14,1059.58,589.86,1059.07,586.62z"/>
			<path class="st12" d="M1058.7,573.47c-0.14-0.22-0.28-0.43-0.37-0.54c-0.08-0.1-0.18-0.21-0.28-0.28
				c-7.93-8.67-18.63-7.36-18.63-7.36l0.87,10.62l8.36,9.85c0,0,4.54,0.51,8.77-0.1c0.84-0.13,1.66-0.31,2.44-0.54
				C1059.65,581.2,1059.26,577.34,1058.7,573.47z"/>
			<path class="st12" d="M1061.66,596.71c0,0-5.95,2.51-13.58,0.48c-7.63-2.03-8.66-5.17-8.66-5.17V581h19.74L1061.66,596.71z"/>
			<polygon class="st12" points="1039.42,581 1039.41,565.29 1044.62,572.28 1043.87,583.08 1042.01,585.11 			"/>
			<path class="st12" d="M1039.43,578.48l-2.14-10.66c0,0,0.24-2.45,2.12-2.53c1.89-0.08,4.22,6.6,4.22,6.6L1039.43,578.48z"/>
			<g>
				<path class="st12" d="M1055.58,572.04l18.57-4.73l-0.83,0.75l6.61-15.36c0.27-0.62,0.99-0.91,1.61-0.64
					c0.62,0.27,0.9,0.98,0.65,1.59l-6.44,15.44c-0.16,0.38-0.46,0.63-0.83,0.75c0,0-18,6.55-18,6.55
					C1053.94,577.38,1052.55,572.93,1055.58,572.04L1055.58,572.04z"/>
			</g>
			<polygon class="st5" points="1078.12,554.96 1077.05,548.43 1078.12,547.84 1079.3,550.96 1083.21,545.77 1085.07,551.68 
				1081.45,557.88 			"/>
			<path class="st9" d="M1040.46,555.08"/>
			<path class="st5" d="M1038.8,535.95l3.61,2.22l1.71-1.97c0,0-1.94-3.61-2.46-5.25C1041.15,529.3,1038.8,535.95,1038.8,535.95z"/>
		</g>
	</g>
</g>
</svg>
